<svg width="32" height="32" viewBox="0 0 32 32" fill="none" xmlns="http://www.w3.org/2000/svg">
<g clip-path="url(#clip0_5_529)">
<path d="M15.248 25.333V24.333H15.244L15.248 25.333ZM22.808 21.421L21.994 20.839C21.8502 21.04 21.786 21.2872 21.8137 21.5328C21.8414 21.7784 21.959 22.005 22.144 22.169L22.808 21.421ZM6.87598 16C6.87585 14.9056 7.09129 13.8219 7.51 12.8108C7.92872 11.7997 8.5425 10.8809 9.3163 10.107C10.0901 9.33312 11.0088 8.71923 12.0198 8.30039C13.0309 7.88156 14.1146 7.66599 15.209 7.66599V5.66599C9.50198 5.66699 4.87598 10.293 4.87598 16H6.87598ZM15.209 24.332C12.9991 24.332 10.8797 23.4542 9.31701 21.8917C7.7543 20.3291 6.87624 18.2099 6.87598 16H4.87598C4.87598 21.707 9.50198 26.333 15.209 26.333V24.332ZM15.244 24.333L15.209 24.332V26.333L15.252 26.332L15.244 24.333ZM25.456 24.332L15.248 24.333V26.332H25.456V24.332ZM25.235 24.916C25.1841 24.8712 25.1481 24.811 25.1318 24.7452C25.1154 24.6795 25.1196 24.6103 25.1436 24.5469C25.1676 24.4836 25.2104 24.4291 25.2662 24.3907C25.322 24.3522 25.3882 24.3318 25.456 24.332V26.332C26.988 26.332 27.709 24.438 26.563 23.42L25.235 24.916ZM22.144 22.167L25.234 24.915L26.563 23.42L23.472 20.673L22.144 22.167ZM23.543 16C23.5461 17.7357 23.0043 19.4276 21.994 20.839L23.622 22.002C24.8736 20.2512 25.5447 18.1521 25.541 16H23.541H23.543ZM15.209 7.66599C16.3034 7.66585 17.3871 7.8823 18.3982 8.30101C19.4093 8.71972 20.328 9.33351 21.1019 10.1073C21.8758 10.8811 22.4897 11.7998 22.9086 12.8109C23.3274 13.8219 23.543 14.9056 23.543 16H25.543C25.543 10.293 20.916 5.66599 15.209 5.66599V7.66599Z" fill="#606B79"/>
</g>
<defs>
<clipPath id="clip0_5_529">
<rect width="32" height="32" fill="white"/>
</clipPath>
</defs>
</svg>
