<svg width="32" height="32" viewBox="0 0 32 32" fill="none" xmlns="http://www.w3.org/2000/svg">
<g clip-path="url(#clip0_5_535)">
<path fill-rule="evenodd" clip-rule="evenodd" d="M25.539 7.87499L24.927 8.48799C26.7003 10.589 27.6711 13.2507 27.667 16C27.667 22.443 22.443 27.667 16 27.667C9.55701 27.667 4.33301 22.443 4.33301 16C4.33301 9.55699 9.55701 4.33299 16 4.33299C18.7493 4.32889 21.411 5.29975 23.512 7.07299L24.155 6.43099V5.17499C24.155 4.99799 24.225 4.82899 24.35 4.70399L26.006 3.04799C26.0461 3.0077 26.0959 2.97836 26.1506 2.96275C26.2052 2.94714 26.263 2.94579 26.3183 2.95882C26.3737 2.97185 26.4247 2.99884 26.4667 3.0372C26.5087 3.07557 26.5401 3.12404 26.558 3.17799L27.026 4.58299C27.092 4.78199 27.248 4.93799 27.448 5.00399L28.852 5.47199C28.906 5.48991 28.9544 5.52135 28.9928 5.56331C29.0312 5.60526 29.0581 5.65634 29.0712 5.71168C29.0842 5.76702 29.0829 5.82478 29.0673 5.87945C29.0516 5.93412 29.0223 5.98388 28.982 6.02399L27.327 7.67999C27.265 7.74191 27.1914 7.791 27.1104 7.82446C27.0294 7.85791 26.9426 7.87509 26.855 7.87499H25.54H25.539ZM6.33301 16C6.33301 10.661 10.661 6.33299 16 6.33299C18.31 6.33299 20.43 7.14299 22.092 8.49399L19.715 10.871C18.425 9.93665 16.8304 9.52271 15.2488 9.71166C13.6672 9.9006 12.215 10.6786 11.1814 11.8905C10.1478 13.1024 9.60892 14.6593 9.67204 16.2509C9.73515 17.8424 10.3957 19.3518 11.522 20.478C12.6482 21.6043 14.1576 22.2648 15.7491 22.328C17.3407 22.3911 18.8976 21.8522 20.1095 20.8186C21.3214 19.785 22.0994 18.3328 22.2883 16.7512C22.4773 15.1696 22.0633 13.575 21.129 12.285L23.506 9.90799C24.9066 11.629 25.6697 13.7811 25.666 16C25.666 18.5637 24.6477 21.0224 22.835 22.8352C21.0223 24.6481 18.5637 25.6667 16 25.667C10.661 25.667 6.33301 21.339 6.33301 16ZM16 11.667C16.834 11.667 17.613 11.903 18.275 12.311L16.235 14.35C15.8886 14.3004 15.5354 14.3611 15.2254 14.5234C14.9155 14.6858 14.6644 14.9415 14.5079 15.2545C14.3514 15.5674 14.2973 15.9217 14.3533 16.2671C14.4094 16.6125 14.5727 16.9315 14.8201 17.1789C15.0675 17.4263 15.3865 17.5896 15.7319 17.6457C16.0773 17.7017 16.4316 17.6476 16.7445 17.4911C17.0575 17.3346 17.3132 17.0835 17.4756 16.7736C17.6379 16.4636 17.6986 16.1104 17.649 15.764L19.689 13.725C20.1924 14.5415 20.4106 15.5019 20.3095 16.4557C20.2084 17.4095 19.7937 18.3029 19.1304 18.9957C18.467 19.6885 17.5925 20.1416 16.644 20.284C15.6954 20.4264 14.7264 20.25 13.8889 19.7825C13.0514 19.3151 12.3926 18.5829 12.0159 17.7008C11.6391 16.8187 11.5658 15.8366 11.8072 14.9083C12.0486 13.98 12.5913 13.1581 13.3501 12.5713C14.1088 11.9845 15.0408 11.6671 16 11.667Z" fill="#1053FF"/>
</g>
<defs>
<clipPath id="clip0_5_535">
<rect width="32" height="32" fill="white"/>
</clipPath>
</defs>
</svg>
