<svg width="32" height="32" viewBox="0 0 32 32" fill="none" xmlns="http://www.w3.org/2000/svg">
<path fill-rule="evenodd" clip-rule="evenodd" d="M15.35 4.57399C15.5311 4.41906 15.7616 4.33392 16 4.33392C16.2383 4.33392 16.4689 4.41906 16.65 4.57399L25.984 12.574C26.0938 12.6679 26.1819 12.7844 26.2423 12.9156C26.3027 13.0468 26.334 13.1895 26.334 13.334V26.667C26.334 26.9322 26.2286 27.1866 26.0411 27.3741C25.8536 27.5616 25.5992 27.667 25.334 27.667H18.667C18.4018 27.667 18.1474 27.5616 17.9599 27.3741C17.7723 27.1866 17.667 26.9322 17.667 26.667V19.667H14.333V26.667C14.333 26.9322 14.2276 27.1866 14.0401 27.3741C13.8526 27.5616 13.5982 27.667 13.333 27.667H6.66699C6.40178 27.667 6.14742 27.5616 5.95989 27.3741C5.77235 27.1866 5.66699 26.9322 5.66699 26.667V13.333C5.667 13.1888 5.6982 13.0463 5.75844 12.9153C5.81868 12.7843 5.90654 12.6679 6.01599 12.574L15.349 4.57399H15.35ZM7.66699 13.794V25.667H12.333V18.667C12.333 18.4018 12.4383 18.1474 12.6259 17.9599C12.8134 17.7723 13.0678 17.667 13.333 17.667H18.667C18.9322 17.667 19.1866 17.7723 19.3741 17.9599C19.5616 18.1474 19.667 18.4018 19.667 18.667V25.667H24.333V13.793L16 6.64999L7.66699 13.794Z" fill="#606B79"/>
</svg>
