<svg width="17" height="17" viewBox="0 0 17 17" fill="none" xmlns="http://www.w3.org/2000/svg">
<g clip-path="url(#clip0_5_66)">
<path d="M7.10938 4.5H14.1094M7.10938 8.5H14.1094M7.10938 12.5H14.1094" stroke="#1053FF" stroke-width="1.5" stroke-linecap="round" stroke-linejoin="round"/>
<path d="M4.10938 5.5C4.66166 5.5 5.10938 5.05228 5.10938 4.5C5.10938 3.94772 4.66166 3.5 4.10938 3.5C3.55709 3.5 3.10938 3.94772 3.10938 4.5C3.10938 5.05228 3.55709 5.5 4.10938 5.5Z" fill="#1053FF"/>
<path d="M4.10938 9.5C4.66166 9.5 5.10938 9.05228 5.10938 8.5C5.10938 7.94772 4.66166 7.5 4.10938 7.5C3.55709 7.5 3.10938 7.94772 3.10938 8.5C3.10938 9.05228 3.55709 9.5 4.10938 9.5Z" fill="#1053FF"/>
<path d="M4.10938 13.5C4.66166 13.5 5.10938 13.0523 5.10938 12.5C5.10938 11.9477 4.66166 11.5 4.10938 11.5C3.55709 11.5 3.10938 11.9477 3.10938 12.5C3.10938 13.0523 3.55709 13.5 4.10938 13.5Z" fill="#1053FF"/>
</g>
<defs>
<clipPath id="clip0_5_66">
<rect width="16" height="16" fill="white" transform="translate(0.609375 0.5)"/>
</clipPath>
</defs>
</svg>
