<svg width="32" height="32" viewBox="0 0 32 32" fill="none" xmlns="http://www.w3.org/2000/svg">
<g clip-path="url(#clip0_5_540)">
<path fill-rule="evenodd" clip-rule="evenodd" d="M10.666 3C10.9312 3 11.1856 3.10536 11.3731 3.29289C11.5607 3.48043 11.666 3.73478 11.666 4V5.667H20.333V4C20.333 3.73478 20.4384 3.48043 20.6259 3.29289C20.8134 3.10536 21.0678 3 21.333 3C21.5982 3 21.8526 3.10536 22.0401 3.29289C22.2277 3.48043 22.333 3.73478 22.333 4V5.667H26C26.92 5.667 27.667 6.413 27.667 7.333V24.667C27.667 25.587 26.92 26.333 26 26.333H6.00001C5.08001 26.333 4.33301 25.587 4.33301 24.667V7.333C4.33301 6.413 5.07901 5.667 6.00001 5.667H9.66701V4C9.66701 3.73478 9.77236 3.48043 9.9599 3.29289C10.1474 3.10536 10.4008 3 10.666 3ZM20.333 7.667V8C20.333 8.26522 20.4384 8.51957 20.6259 8.70711C20.8134 8.89464 21.0678 9 21.333 9C21.5982 9 21.8526 8.89464 22.0401 8.70711C22.2277 8.51957 22.333 8.26522 22.333 8V7.667H25.667V24.333H6.33301V7.667H9.66701V8C9.66701 8.26522 9.77236 8.51957 9.9599 8.70711C10.1474 8.89464 10.4018 9 10.667 9C10.9322 9 11.1866 8.89464 11.3741 8.70711C11.5617 8.51957 11.667 8.26522 11.667 8V7.667H20.333ZM12.596 13.333C12.596 13.152 12.5469 12.9743 12.4539 12.819C12.3609 12.6637 12.2274 12.5365 12.0678 12.4511C11.9081 12.3657 11.7283 12.3252 11.5475 12.334C11.3667 12.3428 11.1916 12.4005 11.041 12.501L9.04101 13.835C8.93175 13.9079 8.83791 14.0016 8.76486 14.1107C8.69181 14.2199 8.64097 14.3423 8.61525 14.4711C8.58953 14.5999 8.58943 14.7325 8.61495 14.8614C8.64047 14.9902 8.69112 15.1127 8.76401 15.222C8.83689 15.3313 8.93058 15.4251 9.03973 15.4981C9.14888 15.5712 9.27134 15.622 9.40014 15.6478C9.52893 15.6735 9.66153 15.6736 9.79037 15.6481C9.9192 15.6225 10.0417 15.5719 10.151 15.499L10.596 15.202V20C10.596 20.2652 10.7014 20.5196 10.8889 20.7071C11.0764 20.8946 11.3308 21 11.596 21C11.8612 21 12.1156 20.8946 12.3031 20.7071C12.4907 20.5196 12.596 20.2652 12.596 20V13.333ZM22.068 12.452C22.2275 12.5374 22.3608 12.6644 22.4538 12.8195C22.5467 12.9747 22.5959 13.1521 22.596 13.333V20C22.596 20.2652 22.4907 20.5196 22.3031 20.7071C22.1156 20.8946 21.8612 21 21.596 21C21.3308 21 21.0764 20.8946 20.8889 20.7071C20.7014 20.5196 20.596 20.2652 20.596 20V15.202L20.151 15.499C19.9303 15.6462 19.6603 15.6997 19.4001 15.6478C19.14 15.5958 18.9112 15.4427 18.764 15.222C18.6168 15.0013 18.5633 14.7312 18.6152 14.4711C18.6672 14.211 18.8203 13.9822 19.041 13.835L21.041 12.501C21.1916 12.4005 21.3667 12.3427 21.5476 12.3339C21.7285 12.3251 21.9083 12.3666 22.068 12.452ZM16.596 14.333C16.596 14.5982 16.4907 14.8526 16.3031 15.0401C16.1156 15.2276 15.8612 15.333 15.596 15.333C15.3308 15.333 15.0764 15.2276 14.8889 15.0401C14.7014 14.8526 14.596 14.5982 14.596 14.333C14.596 14.0678 14.7014 13.8134 14.8889 13.6259C15.0764 13.4384 15.3308 13.333 15.596 13.333C15.8612 13.333 16.1156 13.4384 16.3031 13.6259C16.4907 13.8134 16.596 14.0678 16.596 14.333ZM15.596 19.333C15.8612 19.333 16.1156 19.2276 16.3031 19.0401C16.4907 18.8526 16.596 18.5982 16.596 18.333C16.596 18.0678 16.4907 17.8134 16.3031 17.6259C16.1156 17.4384 15.8612 17.333 15.596 17.333C15.3308 17.333 15.0764 17.4384 14.8889 17.6259C14.7014 17.8134 14.596 18.0678 14.596 18.333C14.596 18.5982 14.7014 18.8526 14.8889 19.0401C15.0764 19.2276 15.3308 19.333 15.596 19.333Z" fill="#606B79"/>
</g>
<defs>
<clipPath id="clip0_5_540">
<rect width="32" height="32" fill="white"/>
</clipPath>
</defs>
</svg>
