<svg width="32" height="32" viewBox="0 0 32 32" fill="none" xmlns="http://www.w3.org/2000/svg">
<g clip-path="url(#clip0_5_506)">
<path fill-rule="evenodd" clip-rule="evenodd" d="M16 6.33301C10.661 6.33301 6.33301 10.661 6.33301 16C6.33301 21.339 10.661 25.667 16 25.667C17.2695 25.667 18.5266 25.417 19.6994 24.9312C20.8723 24.4453 21.9379 23.7333 22.8356 22.8356C23.7333 21.9379 24.4453 20.8723 24.9312 19.6994C25.417 18.5266 25.667 17.2695 25.667 16C25.667 10.661 21.339 6.33301 16 6.33301ZM4.33301 16C4.33301 9.55701 9.55701 4.33301 16 4.33301C22.443 4.33301 27.667 9.55701 27.667 16C27.667 22.443 22.443 27.667 16 27.667C9.55701 27.667 4.33301 22.443 4.33301 16ZM16 11C14.672 11 13.667 12.023 13.667 13.2C13.667 13.4652 13.5617 13.7196 13.3741 13.9071C13.1866 14.0947 12.9322 14.2 12.667 14.2C12.4018 14.2 12.1474 14.0947 11.9599 13.9071C11.7724 13.7196 11.667 13.4652 11.667 13.2C11.667 10.842 13.646 9.00001 16 9.00001C18.354 9.00001 20.333 10.842 20.333 13.2C20.333 15.213 18.885 16.855 17 17.288V18C17 18.2652 16.8947 18.5196 16.7071 18.7071C16.5196 18.8947 16.2652 19 16 19C15.7348 19 15.4804 18.8947 15.2929 18.7071C15.1054 18.5196 15 18.2652 15 18V17.067C15 16.109 15.758 15.493 16.473 15.355C17.563 15.144 18.333 14.234 18.333 13.2C18.333 12.023 17.328 11 16 11ZM16 22.667C16.3537 22.667 16.6929 22.5265 16.9429 22.2764C17.193 22.0264 17.3335 21.6872 17.3335 21.3335C17.3335 20.9798 17.193 20.6407 16.9429 20.3906C16.6929 20.1405 16.3537 20 16 20C15.6463 20 15.3072 20.1405 15.0571 20.3906C14.807 20.6407 14.6665 20.9798 14.6665 21.3335C14.6665 21.6872 14.807 22.0264 15.0571 22.2764C15.3072 22.5265 15.6463 22.667 16 22.667Z" fill="#838B95"/>
</g>
<defs>
<clipPath id="clip0_5_506">
<rect width="32" height="32" fill="white"/>
</clipPath>
</defs>
</svg>
