<svg width="32" height="32" viewBox="0 0 32 32" fill="none" xmlns="http://www.w3.org/2000/svg">
<g clip-path="url(#clip0_5_509)">
<path d="M14.75 4.75V3.75C14.5542 3.74983 14.3626 3.80716 14.199 3.91489C14.0355 4.02262 13.9072 4.176 13.83 4.356L14.75 4.75ZM13.527 7.604L13.809 8.564C13.9503 8.5224 14.0807 8.45009 14.1908 8.35225C14.3009 8.2544 14.3881 8.13344 14.446 7.998L13.526 7.604H13.527ZM17.25 4.75L18.17 4.356C18.0928 4.176 17.9645 4.02262 17.801 3.91489C17.6374 3.80716 17.4458 3.74983 17.25 3.75V4.75ZM18.473 7.604L17.554 7.998C17.6119 8.13344 17.6991 8.2544 17.8092 8.35225C17.9193 8.45009 18.0497 8.5224 18.191 8.564L18.473 7.604ZM20.187 8.314L19.707 9.193C19.8364 9.26353 19.9798 9.30458 20.1269 9.31322C20.274 9.32187 20.4212 9.29789 20.558 9.243L20.187 8.314ZM23.071 7.161L23.778 6.454C23.6396 6.31578 23.4637 6.22117 23.2721 6.18189C23.0805 6.14261 22.8816 6.16038 22.7 6.233L23.071 7.161ZM24.84 8.93L25.768 9.301C25.8406 9.11939 25.8584 8.92047 25.8191 8.72887C25.7798 8.53726 25.6852 8.36138 25.547 8.223L24.84 8.93ZM23.686 11.814L22.758 11.443C22.7033 11.5796 22.6794 11.7267 22.688 11.8736C22.6967 12.0205 22.7376 12.1637 22.808 12.293L23.686 11.814ZM24.396 13.528L23.437 13.81C23.4786 13.9513 23.5509 14.0817 23.6488 14.1918C23.7466 14.3019 23.8676 14.3891 24.003 14.447L24.397 13.527L24.396 13.528ZM27.251 14.751H28.251C28.2512 14.5552 28.1938 14.3636 28.0861 14.2C27.9784 14.0365 27.825 13.9082 27.645 13.831L27.251 14.751ZM27.251 17.251L27.645 18.171C27.825 18.0938 27.9784 17.9655 28.0861 17.802C28.1938 17.6384 28.2512 17.4468 28.251 17.251H27.251ZM24.397 18.474L24.003 17.555C23.8676 17.6129 23.7466 17.7001 23.6488 17.8102C23.5509 17.9203 23.4786 18.0507 23.437 18.192L24.397 18.474ZM23.687 20.188L22.808 19.708C22.7375 19.8374 22.6964 19.9808 22.6878 20.1279C22.6791 20.275 22.7031 20.4222 22.758 20.559L23.687 20.188ZM24.84 23.072L25.547 23.779C25.6852 23.6406 25.7798 23.4647 25.8191 23.2731C25.8584 23.0815 25.8406 22.8826 25.768 22.701L24.84 23.072ZM23.07 24.84L22.699 25.768C22.8806 25.8406 23.0795 25.8584 23.2711 25.8191C23.4627 25.7798 23.6386 25.6852 23.777 25.547L23.07 24.84ZM20.186 23.686L20.557 22.758C20.4204 22.7033 20.2733 22.6794 20.1264 22.688C19.9795 22.6967 19.8363 22.7376 19.707 22.808L20.186 23.686ZM18.472 24.396L18.19 23.437C18.0487 23.4786 17.9183 23.5509 17.8082 23.6488C17.6981 23.7466 17.6109 23.8676 17.553 24.003L18.472 24.396ZM17.25 27.25V28.25C17.4458 28.2502 17.6374 28.1928 17.801 28.0851C17.9645 27.9774 18.0928 27.824 18.17 27.644L17.25 27.25ZM14.75 27.25L13.83 27.644C13.9072 27.824 14.0355 27.9774 14.199 28.0851C14.3626 28.1928 14.5542 28.2502 14.75 28.25V27.25ZM13.527 24.395L14.446 24.002C14.3881 23.8666 14.3009 23.7456 14.1908 23.6478C14.0807 23.5499 13.9503 23.4776 13.809 23.436L13.527 24.395ZM11.813 23.685L12.293 22.807C12.1636 22.7365 12.0202 22.6954 11.8731 22.6868C11.726 22.6781 11.5788 22.7021 11.442 22.757L11.813 23.685ZM8.93 24.84L8.223 25.547C8.36138 25.6852 8.53726 25.7798 8.72887 25.8191C8.92047 25.8584 9.11939 25.8406 9.301 25.768L8.93 24.84ZM7.161 23.07L6.233 22.699C6.16038 22.8806 6.14261 23.0795 6.18189 23.2711C6.22117 23.4627 6.31578 23.6386 6.454 23.777L7.161 23.07ZM8.315 20.186L9.243 20.557C9.29773 20.4204 9.32163 20.2733 9.31299 20.1264C9.30434 19.9795 9.26337 19.8363 9.193 19.707L8.315 20.186ZM7.605 18.472L8.564 18.19C8.5224 18.0487 8.45009 17.9183 8.35225 17.8082C8.2544 17.6981 8.13344 17.6109 7.998 17.553L7.605 18.472ZM4.75 17.25H3.75C3.74983 17.4458 3.80716 17.6374 3.91489 17.801C4.02262 17.9645 4.176 18.0928 4.356 18.17L4.75 17.25ZM4.75 14.75L4.356 13.83C4.176 13.9072 4.02262 14.0355 3.91489 14.199C3.80716 14.3626 3.74983 14.5542 3.75 14.75H4.75ZM7.605 13.527L7.998 14.446C8.13344 14.3881 8.2544 14.3009 8.35225 14.1908C8.45009 14.0807 8.5224 13.9503 8.564 13.809L7.605 13.527ZM8.315 11.813L9.193 12.293C9.26353 12.1636 9.30458 12.0202 9.31322 11.8731C9.32187 11.726 9.29789 11.5788 9.243 11.442L8.315 11.813ZM7.16 8.929L6.453 8.222C6.31495 8.36049 6.22053 8.53643 6.18142 8.72803C6.14232 8.91963 6.16025 9.11849 6.233 9.3L7.16 8.929ZM8.93 7.161L9.301 6.233C9.11939 6.16038 8.92047 6.14261 8.72887 6.18189C8.53726 6.22117 8.36138 6.31578 8.223 6.454L8.93 7.161ZM11.814 8.315L11.443 9.243C11.5796 9.29773 11.7267 9.32163 11.8736 9.31299C12.0205 9.30434 12.1637 9.26337 12.293 9.193L11.814 8.315ZM13.832 4.356L12.608 7.21L14.446 7.998L15.669 5.144L13.832 4.356ZM17.25 3.75H14.751V5.75H17.251L17.25 3.75ZM19.393 7.21L18.17 4.356L16.332 5.144L17.554 7.998L19.393 7.21ZM20.667 7.437C20.0604 7.10568 19.4201 6.84017 18.757 6.645L18.191 8.564C18.723 8.72 19.232 8.932 19.709 9.193L20.667 7.437ZM22.7 6.233L19.816 7.386L20.558 9.243L23.442 8.09L22.7 6.233ZM25.546 8.222L23.778 6.454L22.364 7.868L24.132 9.636L25.546 8.222ZM24.614 12.185L25.767 9.3L23.91 8.558L22.757 11.442L24.614 12.184V12.185ZM25.354 13.245C25.1592 12.5816 24.894 11.941 24.563 11.334L22.808 12.292C23.068 12.77 23.28 13.278 23.436 13.809L25.355 13.244L25.354 13.245ZM27.644 13.831L24.79 12.607L24.002 14.446L26.856 15.669L27.644 13.831ZM28.25 17.25V14.75H26.25V17.25H28.25ZM24.79 19.392L27.644 18.169L26.856 16.331L24.002 17.554L24.79 19.392ZM24.563 20.666C24.8943 20.0594 25.1598 19.4191 25.355 18.756L23.436 18.191C23.2811 18.7177 23.0702 19.2262 22.807 19.708L24.563 20.666ZM25.767 22.7L24.614 19.816L22.757 20.558L23.91 23.442L25.767 22.7ZM23.778 25.546L25.546 23.778L24.132 22.364L22.364 24.132L23.778 25.546ZM19.815 24.614L22.7 25.767L23.442 23.91L20.558 22.757L19.815 24.614ZM18.755 25.354C19.4184 25.1592 20.059 24.8941 20.666 24.563L19.708 22.807C19.23 23.068 18.722 23.28 18.19 23.437L18.756 25.355L18.755 25.354ZM18.17 27.644L19.392 24.789L17.554 24.001L16.331 26.856L18.17 27.644ZM14.75 28.25H17.25V26.25H14.75V28.25ZM12.607 24.79L13.831 27.644L15.669 26.856L14.446 24.001L12.608 24.789L12.607 24.79ZM11.334 24.563C11.9406 24.8943 12.5809 25.1598 13.244 25.355L13.809 23.436C13.2827 23.281 12.7745 23.0701 12.293 22.807L11.334 24.563ZM9.3 25.767L12.185 24.614L11.442 22.757L8.558 23.91L9.3 25.767ZM6.454 23.777L8.222 25.546L9.636 24.132L7.868 22.364L6.454 23.777ZM7.386 19.816L6.233 22.7L8.09 23.442L9.243 20.558L7.386 19.816ZM6.646 18.756C6.842 19.426 7.109 20.065 7.437 20.666L9.193 19.707C8.92947 19.2253 8.71827 18.7177 8.563 18.191L6.646 18.756ZM4.356 18.17L7.211 19.392L7.998 17.554L5.144 16.331L4.356 18.17ZM3.75 14.749V17.25L5.75 17.249V14.749H3.75ZM7.21 12.607L4.356 13.831L5.144 15.669L7.998 14.446L7.21 12.607ZM7.437 11.334C7.10569 11.9406 6.84018 12.5809 6.645 13.244L8.564 13.809C8.71896 13.2823 8.92983 12.7738 9.193 12.292L7.437 11.334ZM6.233 9.3L7.386 12.184L9.243 11.442L8.09 8.558L6.233 9.3ZM8.223 6.454L6.453 8.222L7.868 9.636L9.636 7.868L8.223 6.454ZM12.185 7.386L9.301 6.233L8.558 8.09L11.443 9.243L12.184 7.386H12.185ZM13.245 6.645C12.575 6.842 11.935 7.109 11.334 7.437L12.292 9.193C12.77 8.932 13.278 8.72 13.809 8.563L13.245 6.645ZM19.25 16C19.25 16.862 18.9076 17.6886 18.2981 18.2981C17.6886 18.9076 16.862 19.25 16 19.25V21.25C18.9 21.25 21.25 18.9 21.25 16H19.25ZM16 12.75C16.862 12.75 17.6886 13.0924 18.2981 13.7019C18.9076 14.3114 19.25 15.138 19.25 16H21.25C21.25 13.1 18.9 10.75 16 10.75V12.75ZM12.75 16C12.75 15.138 13.0924 14.3114 13.7019 13.7019C14.3114 13.0924 15.138 12.75 16 12.75V10.75C14.6076 10.75 13.2723 11.3031 12.2877 12.2877C11.3031 13.2723 10.75 14.6076 10.75 16H12.75ZM16 19.25C15.138 19.25 14.3114 18.9076 13.7019 18.2981C13.0924 17.6886 12.75 16.862 12.75 16H10.75C10.75 18.9 13.1 21.25 16 21.25V19.25Z" fill="#838B95"/>
</g>
<defs>
<clipPath id="clip0_5_509">
<rect width="32" height="32" fill="white"/>
</clipPath>
</defs>
</svg>
