<svg width="24" height="24" viewBox="0 0 24 24" fill="none" xmlns="http://www.w3.org/2000/svg">
<g clip-path="url(#clip0_1_513)">
<path fill-rule="evenodd" clip-rule="evenodd" d="M14.53 5.47001C14.6705 5.61064 14.7494 5.80126 14.7494 6.00001C14.7494 6.19876 14.6705 6.38939 14.53 6.53001L9.06002 12L14.53 17.47C14.6037 17.5387 14.6628 17.6215 14.7038 17.7135C14.7448 17.8055 14.7668 17.9048 14.7686 18.0055C14.7704 18.1062 14.7519 18.2062 14.7141 18.2996C14.6764 18.393 14.6203 18.4778 14.5491 18.549C14.4778 18.6203 14.393 18.6764 14.2996 18.7141C14.2062 18.7519 14.1062 18.7704 14.0055 18.7686C13.9048 18.7668 13.8055 18.7448 13.7135 18.7038C13.6215 18.6628 13.5387 18.6037 13.47 18.53L7.82302 12.884C7.70691 12.7679 7.61481 12.6301 7.55197 12.4784C7.48913 12.3268 7.45679 12.1642 7.45679 12C7.45679 11.8358 7.48913 11.6733 7.55197 11.5216C7.61481 11.3699 7.70691 11.2321 7.82302 11.116L13.47 5.47001C13.6106 5.32956 13.8013 5.25067 14 5.25067C14.1988 5.25067 14.3894 5.32956 14.53 5.47001Z" fill="#606B79"/>
</g>
<defs>
<clipPath id="clip0_1_513">
<rect width="24" height="24" fill="white"/>
</clipPath>
</defs>
</svg>
