<svg width="32" height="32" viewBox="0 0 32 32" fill="none" xmlns="http://www.w3.org/2000/svg">
<g clip-path="url(#clip0_1_518)">
<path fill-rule="evenodd" clip-rule="evenodd" d="M8.96499 21.621C8.78283 21.8096 8.68203 22.0622 8.68431 22.3244C8.68659 22.5866 8.79176 22.8374 8.97717 23.0228C9.16258 23.2082 9.41339 23.3134 9.67559 23.3157C9.93778 23.318 10.1904 23.2172 10.379 23.035L16 17.414L21.621 23.035C21.8085 23.2227 22.0629 23.3281 22.3281 23.3282C22.5934 23.3283 22.8478 23.223 23.0355 23.0355C23.2231 22.848 23.3286 22.5936 23.3287 22.3284C23.3288 22.0631 23.2235 21.8087 23.036 21.621L17.414 16L23.036 10.378C23.2235 10.1904 23.3288 9.93593 23.3287 9.67066C23.3286 9.40539 23.2231 9.15102 23.0355 8.96351C22.8478 8.77601 22.5934 8.67072 22.3281 8.67081C22.0629 8.67091 21.8085 8.77637 21.621 8.96401L16 14.585L10.379 8.96501C10.2873 8.86727 10.177 8.78895 10.0544 8.73469C9.93192 8.68044 9.79975 8.65136 9.66577 8.64918C9.53179 8.647 9.39875 8.67178 9.27453 8.72203C9.15031 8.77228 9.03746 8.84698 8.94268 8.94169C8.8479 9.03641 8.77312 9.14921 8.72278 9.27339C8.67244 9.39757 8.64758 9.5306 8.64966 9.66458C8.65174 9.79856 8.68072 9.93075 8.73489 10.0533C8.78906 10.1759 8.86731 10.2863 8.96499 10.378L14.585 16L8.96499 21.621Z" fill="#606B79"/>
</g>
<defs>
<clipPath id="clip0_1_518">
<rect width="32" height="32" fill="white"/>
</clipPath>
</defs>
</svg>
