<svg width="24" height="24" viewBox="0 0 24 24" fill="none" xmlns="http://www.w3.org/2000/svg">
<g clip-path="url(#clip0_5_379)">
<path fill-rule="evenodd" clip-rule="evenodd" d="M13.75 5.5C13.75 5.96413 13.5656 6.40925 13.2374 6.73744C12.9092 7.06563 12.4641 7.25 12 7.25C11.5359 7.25 11.0908 7.06563 10.7626 6.73744C10.4344 6.40925 10.25 5.96413 10.25 5.5C10.25 5.03587 10.4344 4.59075 10.7626 4.26256C11.0908 3.93437 11.5359 3.75 12 3.75C12.4641 3.75 12.9092 3.93437 13.2374 4.26256C13.5656 4.59075 13.75 5.03587 13.75 5.5ZM13.75 12C13.75 12.4641 13.5656 12.9092 13.2374 13.2374C12.9092 13.5656 12.4641 13.75 12 13.75C11.5359 13.75 11.0908 13.5656 10.7626 13.2374C10.4344 12.9092 10.25 12.4641 10.25 12C10.25 11.5359 10.4344 11.0908 10.7626 10.7626C11.0908 10.4344 11.5359 10.25 12 10.25C12.4641 10.25 12.9092 10.4344 13.2374 10.7626C13.5656 11.0908 13.75 11.5359 13.75 12ZM12 20.25C12.4641 20.25 12.9092 20.0656 13.2374 19.7374C13.5656 19.4092 13.75 18.9641 13.75 18.5C13.75 18.0359 13.5656 17.5908 13.2374 17.2626C12.9092 16.9344 12.4641 16.75 12 16.75C11.5359 16.75 11.0908 16.9344 10.7626 17.2626C10.4344 17.5908 10.25 18.0359 10.25 18.5C10.25 18.9641 10.4344 19.4092 10.7626 19.7374C11.0908 20.0656 11.5359 20.25 12 20.25Z" fill="#838B95"/>
</g>
<defs>
<clipPath id="clip0_5_379">
<rect width="24" height="24" fill="white"/>
</clipPath>
</defs>
</svg>
