<svg width="32" height="32" viewBox="0 0 32 32" fill="none" xmlns="http://www.w3.org/2000/svg">
<g clip-path="url(#clip0_5_545)">
<path fill-rule="evenodd" clip-rule="evenodd" d="M10.9999 4C11.2106 4.00002 11.4158 4.06654 11.5864 4.19009C11.757 4.31363 11.8842 4.48789 11.9499 4.688L13.9679 10.822L19.3839 13.077C19.5661 13.153 19.7218 13.2811 19.8312 13.4454C19.9407 13.6096 19.9991 13.8026 19.9991 14C19.9991 14.1974 19.9407 14.3904 19.8312 14.5546C19.7218 14.7189 19.5661 14.847 19.3839 14.923L13.9679 17.178L11.9499 23.312C11.8842 23.5121 11.7569 23.6863 11.5863 23.8098C11.4158 23.9333 11.2105 23.9998 10.9999 23.9998C10.7893 23.9998 10.5841 23.9333 10.4135 23.8098C10.2429 23.6863 10.1157 23.5121 10.0499 23.312L8.03193 17.178L2.61593 14.923C2.43374 14.847 2.2781 14.7189 2.16863 14.5546C2.05915 14.3904 2.00073 14.1974 2.00073 14C2.00073 13.8026 2.05915 13.6096 2.16863 13.4454C2.2781 13.2811 2.43374 13.153 2.61593 13.077L8.03193 10.822L10.0499 4.688C10.1156 4.48789 10.2429 4.31363 10.4135 4.19009C10.5841 4.06654 10.7893 4.00002 10.9999 4ZM10.9999 8.2L9.78993 11.882C9.74492 12.0184 9.67106 12.1434 9.5734 12.2487C9.47573 12.3539 9.35654 12.4369 9.22393 12.492L5.60193 14L9.22393 15.508C9.35635 15.5632 9.47535 15.6462 9.57284 15.7515C9.67032 15.8567 9.74402 15.9817 9.78893 16.118L10.9999 19.8L12.2099 16.12C12.2548 15.9835 12.3286 15.8582 12.4263 15.7528C12.524 15.6473 12.6432 15.5642 12.7759 15.509L16.3979 14L12.7759 12.492C12.6435 12.4368 12.5245 12.3538 12.427 12.2485C12.3295 12.1433 12.2558 12.0183 12.2109 11.882L10.9999 8.2Z" fill="#606B79"/>
<path d="M22 18C22.2652 18 22.5196 18.1054 22.7071 18.2929C22.8946 18.4804 23 18.7348 23 19V21C23 21.2652 22.8946 21.5196 22.7071 21.7071C22.5196 21.8946 22.2652 22 22 22C21.7348 22 21.4804 21.8946 21.2929 21.7071C21.1054 21.5196 21 21.2652 21 21V19C21 18.7348 21.1054 18.4804 21.2929 18.2929C21.4804 18.1054 21.7348 18 22 18ZM18 22C17.7348 22 17.4804 22.1054 17.2929 22.2929C17.1054 22.4804 17 22.7348 17 23C17 23.2652 17.1054 23.5196 17.2929 23.7071C17.4804 23.8946 17.7348 24 18 24H20C20.2652 24 20.5196 23.8946 20.7071 23.7071C20.8946 23.5196 21 23.2652 21 23C21 22.7348 20.8946 22.4804 20.7071 22.2929C20.5196 22.1054 20.2652 22 20 22H18ZM24 22C23.7348 22 23.4804 22.1054 23.2929 22.2929C23.1054 22.4804 23 22.7348 23 23C23 23.2652 23.1054 23.5196 23.2929 23.7071C23.4804 23.8946 23.7348 24 24 24H26C26.2652 24 26.5196 23.8946 26.7071 23.7071C26.8946 23.5196 27 23.2652 27 23C27 22.7348 26.8946 22.4804 26.7071 22.2929C26.5196 22.1054 26.2652 22 26 22H24ZM23 25C23 24.7348 22.8946 24.4804 22.7071 24.2929C22.5196 24.1054 22.2652 24 22 24C21.7348 24 21.4804 24.1054 21.2929 24.2929C21.1054 24.4804 21 24.7348 21 25V27C21 27.2652 21.1054 27.5196 21.2929 27.7071C21.4804 27.8946 21.7348 28 22 28C22.2652 28 22.5196 27.8946 22.7071 27.7071C22.8946 27.5196 23 27.2652 23 27V25ZM26 4C26.2652 4 26.5196 4.10536 26.7071 4.29289C26.8946 4.48043 27 4.73478 27 5V7C27 7.26522 26.8946 7.51957 26.7071 7.70711C26.5196 7.89464 26.2652 8 26 8C25.7348 8 25.4804 7.89464 25.2929 7.70711C25.1054 7.51957 25 7.26522 25 7V5C25 4.73478 25.1054 4.48043 25.2929 4.29289C25.4804 4.10536 25.7348 4 26 4ZM22 8C21.7348 8 21.4804 8.10536 21.2929 8.29289C21.1054 8.48043 21 8.73478 21 9C21 9.26522 21.1054 9.51957 21.2929 9.70711C21.4804 9.89464 21.7348 10 22 10H24C24.2652 10 24.5196 9.89464 24.7071 9.70711C24.8946 9.51957 25 9.26522 25 9C25 8.73478 24.8946 8.48043 24.7071 8.29289C24.5196 8.10536 24.2652 8 24 8H22ZM28 8C27.7348 8 27.4804 8.10536 27.2929 8.29289C27.1054 8.48043 27 8.73478 27 9C27 9.26522 27.1054 9.51957 27.2929 9.70711C27.4804 9.89464 27.7348 10 28 10H30C30.2652 10 30.5196 9.89464 30.7071 9.70711C30.8946 9.51957 31 9.26522 31 9C31 8.73478 30.8946 8.48043 30.7071 8.29289C30.5196 8.10536 30.2652 8 30 8H28ZM27 11C27 10.7348 26.8946 10.4804 26.7071 10.2929C26.5196 10.1054 26.2652 10 26 10C25.7348 10 25.4804 10.1054 25.2929 10.2929C25.1054 10.4804 25 10.7348 25 11V13C25 13.2652 25.1054 13.5196 25.2929 13.7071C25.4804 13.8946 25.7348 14 26 14C26.2652 14 26.5196 13.8946 26.7071 13.7071C26.8946 13.5196 27 13.2652 27 13V11Z" fill="#606B79"/>
</g>
<defs>
<clipPath id="clip0_5_545">
<rect width="32" height="32" fill="white"/>
</clipPath>
</defs>
</svg>
