<svg width="32" height="32" viewBox="0 0 32 32" fill="none" xmlns="http://www.w3.org/2000/svg">
<g clip-path="url(#clip0_5_552)">
<path fill-rule="evenodd" clip-rule="evenodd" d="M7.66699 6.66699C7.66699 6.40178 7.56164 6.14742 7.3741 5.95989C7.18656 5.77235 6.93221 5.66699 6.66699 5.66699C6.40178 5.66699 6.14742 5.77235 5.95989 5.95989C5.77235 6.14742 5.66699 6.40178 5.66699 6.66699V24.667C5.66699 25.587 6.41299 26.333 7.33299 26.333H25.333C25.5982 26.333 25.8526 26.2276 26.0401 26.0401C26.2276 25.8526 26.333 25.5982 26.333 25.333C26.333 25.0678 26.2276 24.8134 26.0401 24.6259C25.8526 24.4383 25.5982 24.333 25.333 24.333H7.66699V6.66699ZM13 13.333C13 13.0678 12.8946 12.8134 12.7071 12.6259C12.5196 12.4383 12.2652 12.333 12 12.333C11.7348 12.333 11.4804 12.4383 11.2929 12.6259C11.1053 12.8134 11 13.0678 11 13.333V20C11 20.2652 11.1053 20.5196 11.2929 20.7071C11.4804 20.8946 11.7348 21 12 21C12.2652 21 12.5196 20.8946 12.7071 20.7071C12.8946 20.5196 13 20.2652 13 20V13.333ZM17.333 6.99999C17.5982 6.99999 17.8526 7.10535 18.0401 7.29289C18.2276 7.48042 18.333 7.73478 18.333 7.99999V20C18.333 20.2652 18.2276 20.5196 18.0401 20.7071C17.8526 20.8946 17.5982 21 17.333 21C17.0678 21 16.8134 20.8946 16.6259 20.7071C16.4383 20.5196 16.333 20.2652 16.333 20V7.99999C16.333 7.73478 16.4383 7.48042 16.6259 7.29289C16.8134 7.10535 17.0678 6.99999 17.333 6.99999ZM23.667 17.333C23.667 17.0678 23.5616 16.8134 23.3741 16.6259C23.1866 16.4383 22.9322 16.333 22.667 16.333C22.4018 16.333 22.1474 16.4383 21.9599 16.6259C21.7723 16.8134 21.667 17.0678 21.667 17.333V20C21.667 20.2652 21.7723 20.5196 21.9599 20.7071C22.1474 20.8946 22.4018 21 22.667 21C22.9322 21 23.1866 20.8946 23.3741 20.7071C23.5616 20.5196 23.667 20.2652 23.667 20V17.333Z" fill="#606B79"/>
</g>
<defs>
<clipPath id="clip0_5_552">
<rect width="32" height="32" fill="white"/>
</clipPath>
</defs>
</svg>
