<svg width="16" height="17" viewBox="0 0 16 17" fill="none" xmlns="http://www.w3.org/2000/svg">
<g clip-path="url(#clip0_5_61)">
<path fill-rule="evenodd" clip-rule="evenodd" d="M8 2.25C7.53545 2.24945 7.08519 2.41064 6.72653 2.7059C6.36787 3.00115 6.12317 3.41205 6.03446 3.86806C5.94574 4.32406 6.01853 4.79673 6.24034 5.20492C6.46214 5.6131 6.81913 5.93134 7.25 6.105V7.75H5C4.27066 7.75 3.57118 8.03973 3.05546 8.55546C2.53973 9.07118 2.25 9.77066 2.25 10.5V10.895C1.81974 11.0691 1.4634 11.3873 1.24207 11.7953C1.02073 12.2033 0.948172 12.6755 1.03683 13.1311C1.12549 13.5867 1.36984 13.9972 1.72801 14.2924C2.08618 14.5876 2.53587 14.7491 3 14.7491C3.46414 14.7491 3.91383 14.5876 4.272 14.2924C4.63017 13.9972 4.87452 13.5867 4.96318 13.1311C5.05183 12.6755 4.97928 12.2033 4.75794 11.7953C4.5366 11.3873 4.18027 11.0691 3.75 10.895V10.5C3.75 9.81 4.31 9.25 5 9.25H7.25V10.895C6.81974 11.0691 6.4634 11.3873 6.24207 11.7953C6.02073 12.2033 5.94817 12.6755 6.03683 13.1311C6.12549 13.5867 6.36984 13.9972 6.72801 14.2924C7.08618 14.5876 7.53587 14.7491 8 14.7491C8.46414 14.7491 8.91383 14.5876 9.272 14.2924C9.63017 13.9972 9.87452 13.5867 9.96318 13.1311C10.0518 12.6755 9.97928 12.2033 9.75794 11.7953C9.5366 11.3873 9.18027 11.0691 8.75 10.895V9.25H11C11.69 9.25 12.25 9.81 12.25 10.5V10.895C11.8197 11.0691 11.4634 11.3873 11.2421 11.7953C11.0207 12.2033 10.9482 12.6755 11.0368 13.1311C11.1255 13.5867 11.3698 13.9972 11.728 14.2924C12.0862 14.5876 12.5359 14.7491 13 14.7491C13.4641 14.7491 13.9138 14.5876 14.272 14.2924C14.6302 13.9972 14.8745 13.5867 14.9632 13.1311C15.0518 12.6755 14.9793 12.2033 14.7579 11.7953C14.5366 11.3873 14.1803 11.0691 13.75 10.895V10.5C13.75 9.77066 13.4603 9.07118 12.9445 8.55546C12.4288 8.03973 11.7293 7.75 11 7.75H8.75V6.105C9.18088 5.93134 9.53786 5.6131 9.75967 5.20492C9.98148 4.79673 10.0543 4.32406 9.96555 3.86806C9.87683 3.41205 9.63214 3.00115 9.27348 2.7059C8.91482 2.41064 8.46456 2.24945 8 2.25ZM7.5 4.25C7.5 4.11739 7.55268 3.99022 7.64645 3.89645C7.74022 3.80268 7.86739 3.75 8 3.75C8.13261 3.75 8.25979 3.80268 8.35356 3.89645C8.44733 3.99022 8.5 4.11739 8.5 4.25C8.5 4.38261 8.44733 4.50979 8.35356 4.60355C8.25979 4.69732 8.13261 4.75 8 4.75C7.86739 4.75 7.74022 4.69732 7.64645 4.60355C7.55268 4.50979 7.5 4.38261 7.5 4.25ZM12.5 12.75C12.5 12.6174 12.5527 12.4902 12.6465 12.3964C12.7402 12.3027 12.8674 12.25 13 12.25C13.1326 12.25 13.2598 12.3027 13.3536 12.3964C13.4473 12.4902 13.5 12.6174 13.5 12.75C13.5 12.8826 13.4473 13.0098 13.3536 13.1036C13.2598 13.1973 13.1326 13.25 13 13.25C12.8674 13.25 12.7402 13.1973 12.6465 13.1036C12.5527 13.0098 12.5 12.8826 12.5 12.75ZM2.5 12.75C2.5 12.6174 2.55268 12.4902 2.64645 12.3964C2.74022 12.3027 2.8674 12.25 3 12.25C3.13261 12.25 3.25979 12.3027 3.35356 12.3964C3.44732 12.4902 3.5 12.6174 3.5 12.75C3.5 12.8826 3.44732 13.0098 3.35356 13.1036C3.25979 13.1973 3.13261 13.25 3 13.25C2.8674 13.25 2.74022 13.1973 2.64645 13.1036C2.55268 13.0098 2.5 12.8826 2.5 12.75ZM7.5 12.75C7.5 12.6174 7.55268 12.4902 7.64645 12.3964C7.74022 12.3027 7.86739 12.25 8 12.25C8.13261 12.25 8.25979 12.3027 8.35356 12.3964C8.44733 12.4902 8.5 12.6174 8.5 12.75C8.5 12.8826 8.44733 13.0098 8.35356 13.1036C8.25979 13.1973 8.13261 13.25 8 13.25C7.86739 13.25 7.74022 13.1973 7.64645 13.1036C7.55268 13.0098 7.5 12.8826 7.5 12.75Z" fill="black"/>
</g>
<defs>
<clipPath id="clip0_5_61">
<rect width="16" height="16" fill="white" transform="translate(0 0.5)"/>
</clipPath>
</defs>
</svg>
